<svg width="117" height="154" viewBox="0 0 117 154" fill="none" xmlns="http://www.w3.org/2000/svg">
<path d="M114.807 -13.1949C116.412 -10.1815 115.549 -5.53806 114.899 -2.15839C113.888 3.09372 112.357 8.88206 109.114 13.4359C101.56 24.0437 92.9087 31.3875 81.5204 37.4279C71.1387 42.9345 60.3854 47.1969 49.8192 52.1986C34.7175 59.3473 20.7513 68.8129 8.83521 80.9767C-0.882947 90.8968 -5.84861 103.521 -12.5547 115.257C-15.2544 119.982 -18.1236 124.925 -21.6972 129.075C-24.6352 132.487 -27.3309 136.593 -30.6951 139.594C-32.8227 141.491 -34.6126 144.352 -37.014 145.837C-38.0559 146.481 -39.7394 147.767 -40.5452 148.713C-42.0268 150.454 -45.1883 152.277 -47.1599 153.496" stroke="#FAFAFA" stroke-linecap="round"/>
</svg>
