<svg width="126" height="169" viewBox="0 0 126 169" fill="none" xmlns="http://www.w3.org/2000/svg">
<path d="M123.495 -5.55788C125.285 -2.19818 124.598 2.80885 124.075 6.45198C123.262 12.1135 121.935 18.3318 118.787 23.1199C111.455 34.2735 102.846 41.8206 91.3536 47.8103C80.8771 53.2706 69.9624 57.3587 59.2734 62.2604C43.9961 69.2662 29.9929 78.8503 18.2249 91.4739C8.62755 101.769 4.05567 115.248 -2.35215 127.672C-4.93181 132.673 -7.67679 137.905 -11.1839 142.236C-14.0673 145.798 -16.6699 150.127 -20.0113 153.219C-22.1245 155.175 -23.8468 158.196 -26.2608 159.688C-27.3081 160.336 -28.9898 161.649 -29.7801 162.637C-31.2333 164.455 -34.4172 166.277 -36.3992 167.502" stroke="#FAFAFA" stroke-linecap="round"/>
</svg>
