<svg width="199" height="386" viewBox="0 0 199 386" fill="none" xmlns="http://www.w3.org/2000/svg">
<path d="M230.369 384.238C223.977 385.718 215.786 381.807 209.835 378.918C200.588 374.429 190.605 368.707 183.764 360.422C167.83 341.122 158.5 321.41 152.951 297.264C147.893 275.253 145.329 253.17 141.3 231.067C135.541 199.477 124.916 168.842 108.263 140.671C94.6812 117.696 73.7151 102.198 55.2651 83.9115C47.8375 76.5498 40.0871 68.7643 34.1613 60.0662C29.2895 52.9152 23.0068 45.8682 19.1103 38.1307C16.6461 33.2371 12.2251 28.4912 10.6636 23.2948C9.98612 21.0403 8.43678 17.2754 7.08038 15.3088C4.58628 11.6926 2.7742 4.91677 1.49219 0.650423" stroke="#505050" stroke-linecap="round"/>
</svg>
