<svg width="230" height="385" viewBox="0 0 230 385" fill="none" xmlns="http://www.w3.org/2000/svg">
<path d="M242.868 383.565C235.741 385.216 226.788 381.45 220.285 378.667C210.179 374.342 199.296 368.786 191.973 360.561C174.915 341.4 165.187 321.665 159.785 297.352C154.859 275.187 152.699 252.892 148.917 230.611C143.511 198.766 132.684 168.003 115.104 139.878C100.766 116.941 78.017 101.749 58.1415 83.6736C50.14 76.3969 41.794 68.699 35.4973 60.0339C30.3206 52.9099 23.5778 45.9247 19.4997 38.1838C16.9205 33.2881 12.1691 28.5883 10.5995 23.3646C9.91843 21.0982 8.31807 17.3234 6.87604 15.3646C4.22448 11.7628 2.42583 4.94603 1.13708 0.657227" stroke="#505050" stroke-linecap="round"/>
</svg>
