<svg width="294" height="87" viewBox="0 0 294 87" fill="none" xmlns="http://www.w3.org/2000/svg">
<g clip-path="url(#clip0_1401_1652)">
<path d="M282.609 0H10.8696C4.86647 0 0 4.86647 0 10.8696V76.087C0 82.09 4.86647 86.9565 10.8696 86.9565H282.609C288.612 86.9565 293.478 82.09 293.478 76.087V10.8696C293.478 4.86647 288.612 0 282.609 0Z" fill="black"/>
<path d="M282.609 1.73913C285.03 1.73913 287.353 2.70108 289.065 4.41337C290.777 6.12566 291.739 8.44802 291.739 10.8696V76.087C291.739 78.5085 290.777 80.8309 289.065 82.5431C287.353 84.2554 285.03 85.2174 282.609 85.2174H10.8696C8.44802 85.2174 6.12566 84.2554 4.41337 82.5431C2.70108 80.8309 1.73913 78.5085 1.73913 76.087V10.8696C1.73913 8.44802 2.70108 6.12566 4.41337 4.41337C6.12566 2.70108 8.44802 1.73913 10.8696 1.73913H282.609ZM282.609 0H10.8696C7.98678 0 5.22206 1.14518 3.18362 3.18362C1.14518 5.22206 0 7.98678 0 10.8696V76.087C0 78.9697 1.14518 81.7345 3.18362 83.7729C5.22206 85.8113 7.98678 86.9565 10.8696 86.9565H282.609C285.491 86.9565 288.256 85.8113 290.295 83.7729C292.333 81.7345 293.478 78.9697 293.478 76.087V10.8696C293.478 7.98678 292.333 5.22206 290.295 3.18362C288.256 1.14518 285.491 0 282.609 0Z" fill="#A6A6A6"/>
<path d="M103.086 22.2608C103.122 23.058 102.996 23.8542 102.715 24.6014C102.435 25.3487 102.007 26.0314 101.456 26.6086C100.838 27.2462 100.093 27.7462 99.2685 28.0759C98.4443 28.4055 97.5598 28.5575 96.6729 28.5217C95.7809 28.5415 94.8942 28.3782 94.0678 28.0416C93.2415 27.7051 92.4929 27.2026 91.8685 26.5651C90.6018 25.2694 89.8926 23.5293 89.8926 21.7173C89.8926 19.9053 90.6018 18.1652 91.8685 16.8695C92.837 15.9231 94.0636 15.2841 95.3941 15.0327C96.7246 14.7813 98.0998 14.9287 99.3468 15.4564C100.131 15.7787 100.83 16.2771 101.39 16.913L100.238 18.0651C99.8064 17.5451 99.2594 17.1328 98.6405 16.8611C98.0216 16.5894 97.3479 16.4657 96.6729 16.4999C95.8208 16.5058 94.9831 16.7203 94.233 17.1247C93.4829 17.5291 92.8433 18.1111 92.3701 18.8198C91.8969 19.5284 91.6044 20.3422 91.5183 21.19C91.4322 22.0378 91.5551 22.8937 91.8761 23.6831C92.1972 24.4724 92.7068 25.1711 93.3602 25.718C94.0137 26.265 94.7911 26.6436 95.6247 26.8207C96.4582 26.9978 97.3225 26.968 98.1418 26.734C98.9612 26.4999 99.7108 26.0688 100.325 25.4782C100.989 24.7501 101.374 23.8106 101.412 22.826H96.6729V21.2608H102.999C103.048 21.592 103.078 21.926 103.086 22.2608Z" fill="white" stroke="white" stroke-width="0.411304" stroke-miterlimit="10"/>
<path d="M113.042 16.8261H107.172V20.9565H112.52V22.5218H107.172V26.6522H113.042V28.2609H105.477V15.2174H113.042V16.8261Z" fill="white" stroke="white" stroke-width="0.411304" stroke-miterlimit="10"/>
<path d="M120.174 28.2609H118.5V16.8261H114.848V15.2174H123.913V16.8261H120.174V28.2609Z" fill="white" stroke="white" stroke-width="0.411304" stroke-miterlimit="10"/>
<path d="M130.305 28.2609V15.2174H131.979V28.2609H130.305Z" fill="white" stroke="white" stroke-width="0.411304" stroke-miterlimit="10"/>
<path d="M139.414 28.2609H137.74V16.8261H134.088V15.2174H143.044V16.8261H139.414V28.2609Z" fill="white" stroke="white" stroke-width="0.411304" stroke-miterlimit="10"/>
<path d="M160.021 26.5652C159.394 27.1936 158.648 27.6921 157.827 28.0322C157.007 28.3723 156.127 28.5474 155.239 28.5474C154.35 28.5474 153.471 28.3723 152.65 28.0322C151.83 27.6921 151.084 27.1936 150.456 26.5652C149.227 25.2588 148.543 23.5328 148.543 21.7391C148.543 19.9455 149.227 18.2195 150.456 16.9131C151.071 16.267 151.814 15.757 152.638 15.4163C153.461 15.0755 154.348 14.9115 155.239 14.9348C156.129 14.9207 157.012 15.089 157.835 15.4292C158.657 15.7694 159.401 16.2744 160.021 16.9131C160.647 17.5489 161.138 18.3036 161.466 19.1325C161.795 19.9614 161.954 20.8477 161.934 21.7391C161.963 22.6317 161.808 23.5206 161.479 24.3507C161.15 25.1809 160.654 25.9346 160.021 26.5652ZM151.695 25.4783C152.158 25.9476 152.71 26.3202 153.318 26.5745C153.927 26.8289 154.579 26.9598 155.239 26.9598C155.898 26.9598 156.551 26.8289 157.159 26.5745C157.767 26.3202 158.319 25.9476 158.782 25.4783C159.72 24.459 160.241 23.1244 160.241 21.7391C160.241 20.3539 159.72 19.0193 158.782 18C158.319 17.5307 157.767 17.1581 157.159 16.9037C156.551 16.6494 155.898 16.5184 155.239 16.5184C154.579 16.5184 153.927 16.6494 153.318 16.9037C152.71 17.1581 152.158 17.5307 151.695 18C150.757 19.0193 150.237 20.3539 150.237 21.7391C150.237 23.1244 150.757 24.459 151.695 25.4783Z" fill="white" stroke="white" stroke-width="0.411304" stroke-miterlimit="10"/>
<path d="M164.305 28.2609V15.2174H166.326L172.674 25.3696V22.8478V15.2174H174.348V28.2609H172.609L165.979 17.6305V20.1305V28.2609H164.305Z" fill="white" stroke="white" stroke-width="0.411304" stroke-miterlimit="10"/>
<path d="M148.132 47.2826C146.3 47.2869 144.511 47.8342 142.99 48.8554C141.47 49.8766 140.286 51.3257 139.589 53.0195C138.892 54.7134 138.713 56.5759 139.075 58.3715C139.436 60.167 140.322 61.8151 141.62 63.1072C142.919 64.3993 144.571 65.2774 146.368 65.6306C148.165 65.9837 150.027 65.7959 151.717 65.091C153.408 64.3861 154.852 63.1957 155.866 61.6704C156.88 60.1451 157.419 58.3533 157.414 56.5217C157.432 55.2998 157.204 54.0869 156.743 52.9551C156.282 51.8233 155.598 50.7957 154.732 49.9337C153.866 49.0716 152.835 48.3927 151.701 47.9372C150.567 47.4818 149.353 47.2591 148.132 47.2826V47.2826ZM148.132 62.1304C147.009 62.2089 145.889 61.9479 144.916 61.3812C143.944 60.8146 143.165 59.9686 142.68 58.9531C142.194 57.9376 142.026 56.7997 142.196 55.6873C142.366 54.5748 142.867 53.5393 143.634 52.7153C144.4 51.8913 145.397 51.3169 146.494 51.0669C147.591 50.8168 148.739 50.9027 149.786 51.3132C150.834 51.7237 151.734 52.44 152.37 53.3689C153.005 54.2978 153.346 55.3963 153.349 56.5217C153.384 57.2348 153.276 57.9477 153.031 58.6183C152.786 59.2889 152.41 59.9037 151.923 60.4264C151.437 60.9492 150.851 61.3693 150.2 61.6619C149.549 61.9546 148.845 62.1139 148.132 62.1304ZM127.871 47.2826C126.039 47.2869 124.25 47.8342 122.729 48.8554C121.209 49.8766 120.025 51.3257 119.328 53.0195C118.631 54.7134 118.452 56.5759 118.814 58.3715C119.175 60.167 120.061 61.8151 121.36 63.1072C122.658 64.3993 124.31 65.2774 126.107 65.6306C127.904 65.9837 129.766 65.7959 131.457 65.091C133.147 64.3861 134.591 63.1957 135.605 61.6704C136.619 60.1451 137.158 58.3533 137.153 56.5217C137.171 55.2998 136.943 54.0869 136.482 52.9551C136.021 51.8233 135.337 50.7957 134.471 49.9337C133.605 49.0716 132.575 48.3927 131.441 47.9372C130.307 47.4818 129.093 47.2591 127.871 47.2826V47.2826ZM127.871 62.1304C126.748 62.2089 125.628 61.9479 124.656 61.3812C123.683 60.8146 122.904 59.9686 122.419 58.9531C121.934 57.9376 121.765 56.7997 121.935 55.6873C122.105 54.5748 122.606 53.5393 123.373 52.7153C124.139 51.8913 125.136 51.3169 126.233 51.0669C127.331 50.8168 128.478 50.9027 129.526 51.3132C130.573 51.7237 131.474 52.44 132.109 53.3689C132.744 54.2978 133.085 55.3963 133.088 56.5217C133.123 57.2348 133.015 57.9477 132.77 58.6183C132.525 59.2889 132.149 59.9037 131.662 60.4264C131.176 60.9492 130.59 61.3693 129.939 61.6619C129.288 61.9546 128.585 62.1139 127.871 62.1304ZM103.784 50.1304V54.0435H113.175C113.028 55.8865 112.262 57.6256 111.001 58.9782C110.059 59.938 108.926 60.6894 107.675 61.1837C106.425 61.678 105.084 61.9043 103.74 61.8478C100.973 61.8478 98.3188 60.7484 96.3619 58.7915C94.405 56.8346 93.3056 54.1805 93.3056 51.413C93.3056 48.6455 94.405 45.9914 96.3619 44.0345C98.3188 42.0776 100.973 40.9782 103.74 40.9782C106.394 40.9388 108.955 41.9463 110.871 43.7826L113.632 41.0217C112.336 39.7402 110.798 38.7302 109.107 38.0508C107.416 37.3714 105.606 37.0363 103.784 37.0652C101.851 36.99 99.9233 37.3057 98.1156 37.9934C96.3079 38.6811 94.6577 39.7266 93.2637 41.0674C91.8698 42.4081 90.7609 44.0165 90.0034 45.7961C89.2459 47.5756 88.8555 49.4898 88.8555 51.4239C88.8555 53.358 89.2459 55.2721 90.0034 57.0517C90.7609 58.8313 91.8698 60.4396 93.2637 61.7804C94.6577 63.1211 96.3079 64.1667 98.1156 64.8544C99.9233 65.5421 101.851 65.8578 103.784 65.7826C105.643 65.8569 107.498 65.5369 109.225 64.8438C110.952 64.1507 112.513 63.1 113.806 61.7608C116.088 59.253 117.305 55.9547 117.197 52.5652C117.205 51.7494 117.139 50.9345 117.001 50.1304H103.784ZM202.284 53.1739C201.717 51.5059 200.657 50.0495 199.244 48.9975C197.831 47.9454 196.131 47.3474 194.371 47.2826C193.182 47.2803 192.005 47.5219 190.913 47.9924C189.821 48.463 188.837 49.1526 188.022 50.0185C187.207 50.8845 186.578 51.9083 186.174 53.0269C185.771 54.1454 185.601 55.3349 185.675 56.5217C185.657 58.5062 186.28 60.4434 187.454 62.044C188.627 63.6447 190.286 64.8228 192.184 65.4025C194.082 65.9821 196.117 65.9322 197.984 65.2602C199.852 64.5882 201.451 63.3301 202.545 61.6739L199.393 59.5C198.923 60.2832 198.256 60.93 197.459 61.3761C196.662 61.8223 195.762 62.0523 194.849 62.0435C193.907 62.0824 192.975 61.8353 192.176 61.3348C191.376 60.8343 190.747 60.1038 190.371 59.2391L202.74 54.1304L202.284 53.1739ZM189.675 56.2608C189.631 55.5856 189.722 54.9083 189.943 54.2687C190.164 53.6291 190.51 53.04 190.962 52.5359C191.413 52.0318 191.961 51.6229 192.572 51.333C193.184 51.0431 193.847 50.8782 194.523 50.8478C195.223 50.805 195.921 50.97 196.528 51.3219C197.135 51.6738 197.625 52.197 197.936 52.8261L189.675 56.2608ZM179.632 65.2174H183.697V38.0435H179.632V65.2174ZM172.979 49.3478H172.827C172.22 48.6562 171.471 48.1039 170.63 47.7287C169.79 47.3535 168.878 47.1643 167.958 47.1739C165.582 47.2891 163.342 48.3139 161.701 50.036C160.061 51.7581 159.145 54.0454 159.145 56.4239C159.145 58.8024 160.061 61.0897 161.701 62.8118C163.342 64.5338 165.582 65.5587 167.958 65.6739C168.879 65.6924 169.794 65.5071 170.636 65.1313C171.477 64.7555 172.226 64.1985 172.827 63.5H172.979V64.8261C172.979 68.3695 171.088 70.2608 168.045 70.2608C167.028 70.2385 166.041 69.9145 165.209 69.3301C164.377 68.7456 163.737 67.927 163.371 66.9782L159.849 68.4348C160.5 70.0701 161.632 71.4693 163.096 72.4475C164.559 73.4256 166.285 73.9367 168.045 73.913C172.806 73.913 176.74 71.1087 176.74 64.2826V47.8261H172.979V49.3478ZM168.306 62.1304C166.881 62.0416 165.544 61.4132 164.567 60.3732C163.59 59.3331 163.046 57.9597 163.046 56.5326C163.046 55.1055 163.59 53.7321 164.567 52.692C165.544 51.652 166.881 51.0236 168.306 50.9348C169.002 50.9648 169.685 51.1346 170.314 51.434C170.943 51.7334 171.506 52.1563 171.968 52.6775C172.431 53.1988 172.783 53.8077 173.006 54.4681C173.228 55.1286 173.315 55.8269 173.262 56.5217C173.321 57.2189 173.239 57.9208 173.019 58.5851C172.799 59.2494 172.447 59.8622 171.984 60.3865C171.52 60.9108 170.956 61.3356 170.323 61.6354C169.691 61.9351 169.005 62.1035 168.306 62.1304V62.1304ZM221.327 38.0435H211.588V65.2174H215.653V54.913H221.327C222.486 54.9963 223.649 54.8399 224.745 54.4537C225.84 54.0676 226.844 53.4598 227.695 52.6684C228.545 51.8771 229.223 50.919 229.687 49.854C230.151 48.7889 230.39 47.6398 230.39 46.4782C230.39 45.3167 230.151 44.1675 229.687 43.1025C229.223 42.0375 228.545 41.0794 227.695 40.288C226.844 39.4966 225.84 38.8889 224.745 38.5027C223.649 38.1166 222.486 37.9602 221.327 38.0435V38.0435ZM221.327 51.0869H215.653V41.8261H221.414C222.025 41.8261 222.63 41.9464 223.195 42.1802C223.759 42.414 224.272 42.7567 224.704 43.1887C225.136 43.6206 225.479 44.1335 225.712 44.6979C225.946 45.2624 226.066 45.8673 226.066 46.4782C226.066 47.0892 225.946 47.6941 225.712 48.2585C225.479 48.823 225.136 49.3358 224.704 49.7678C224.272 50.1998 223.759 50.5425 223.195 50.7763C222.63 51.0101 222.025 51.1304 221.414 51.1304L221.327 51.0869ZM246.414 47.1956C244.934 47.1043 243.459 47.449 242.173 48.187C240.886 48.9249 239.844 50.0238 239.175 51.3478L242.762 52.8478C243.125 52.1943 243.668 51.6598 244.328 51.3087C244.988 50.9577 245.735 50.8051 246.479 50.8695C246.996 50.8093 247.518 50.8524 248.018 50.9963C248.517 51.1403 248.982 51.3822 249.387 51.708C249.792 52.0338 250.128 52.437 250.375 52.8939C250.622 53.3509 250.776 53.8525 250.827 54.3695V54.6304C249.52 53.9433 248.065 53.5851 246.588 53.5869C242.719 53.5869 238.762 55.7608 238.762 59.7174C238.8 60.5583 239.007 61.383 239.37 62.1425C239.734 62.9019 240.246 63.5806 240.877 64.1383C241.507 64.6959 242.243 65.1211 243.042 65.3887C243.84 65.6562 244.684 65.7606 245.523 65.6956C246.543 65.7521 247.56 65.5362 248.469 65.0701C249.378 64.6041 250.147 63.9046 250.697 63.0435H250.827V65.2174H254.74V54.7608C254.74 50 251.132 47.2391 246.501 47.2391L246.414 47.1956ZM245.914 62.0869C244.588 62.0869 242.74 61.413 242.74 59.7826C242.74 57.6087 245.045 56.8695 247.088 56.8695C248.38 56.8377 249.656 57.153 250.784 57.7826C250.647 58.9632 250.088 60.0543 249.208 60.8537C248.329 61.6531 247.189 62.1067 246.001 62.1304L245.914 62.0869ZM269.001 47.8261L264.349 59.6087H264.219L259.393 47.8261H255.045L262.284 64.3043L258.153 73.4565H262.393L273.523 47.8261H269.001ZM232.479 65.2174H236.523V38.0435H232.479V65.2174Z" fill="white"/>
<path d="M22.6971 16.3913C21.9807 17.2383 21.6152 18.3271 21.6754 19.4348V67.5217C21.6014 68.6313 21.9686 69.7251 22.6971 70.5652L22.8493 70.7391L49.7841 43.8044V43.1522L22.8493 16.2391L22.6971 16.3913Z" fill="url(#paint0_linear_1401_1652)"/>
<path d="M58.6962 52.7825L49.7832 43.8043V43.1521L58.6962 34.1738L58.8919 34.3043L69.5658 40.3477C72.6093 42.0651 72.6093 44.8912 69.5658 46.6304L58.9354 52.6738L58.6962 52.7825Z" fill="url(#paint1_linear_1401_1652)"/>
<path d="M58.9542 52.6522L49.7803 43.4783L22.6934 70.5652C23.3077 71.112 24.0939 71.4266 24.9159 71.4544C25.7378 71.4822 26.5435 71.2214 27.1934 70.7174L58.9542 52.6522" fill="url(#paint2_linear_1401_1652)"/>
<path d="M58.9542 34.3044L27.1934 16.2609C26.5478 15.7498 25.7427 15.4827 24.9196 15.5066C24.0966 15.5305 23.3083 15.8437 22.6934 16.3913L49.7803 43.4783L58.9542 34.3044Z" fill="url(#paint3_linear_1401_1652)"/>
<path opacity="0.2" d="M58.6934 52.4565L27.1934 70.3913C26.5672 70.8639 25.804 71.1195 25.0194 71.1195C24.2349 71.1195 23.4717 70.8639 22.8455 70.3913V70.3913L22.6934 70.5434L22.8455 70.7173C23.4717 71.19 24.2349 71.4456 25.0194 71.4456C25.804 71.4456 26.5672 71.19 27.1934 70.7173L58.9542 52.6521L58.6934 52.4565Z" fill="black"/>
<path opacity="0.12" d="M22.6956 70.2609C21.9973 69.3986 21.6551 68.302 21.739 67.1957V67.5218C21.6651 68.6313 22.0323 69.7251 22.7608 70.5652L22.9129 70.4131L22.6956 70.2609Z" fill="black"/>
<path opacity="0.12" d="M69.5649 46.3044L58.6953 52.4565L58.891 52.6522L69.5649 46.6087C70.1949 46.3423 70.7415 45.9109 71.147 45.36C71.5526 44.8091 71.8021 44.159 71.8692 43.4783C71.7333 44.0969 71.454 44.6749 71.0537 45.1658C70.6535 45.6567 70.1435 46.0467 69.5649 46.3044Z" fill="black"/>
<path opacity="0.25" d="M27.1956 16.5653L69.5651 40.6522C70.1437 40.9099 70.6537 41.2999 71.054 41.7907C71.4542 42.2816 71.7336 42.8597 71.8695 43.4783C71.8023 42.7975 71.5528 42.1475 71.1473 41.5966C70.7418 41.0456 70.1952 40.6143 69.5651 40.3479L27.1956 16.2609C24.1738 14.5218 21.6738 15.9566 21.6738 19.4348V19.7609C21.739 16.2826 24.1738 14.8479 27.1956 16.5653Z" fill="white"/>
</g>
<defs>
<linearGradient id="paint0_linear_1401_1652" x1="47.3928" y1="18.9348" x2="10.9145" y2="55.4131" gradientUnits="userSpaceOnUse">
<stop stop-color="#00A0FF"/>
<stop offset="0.01" stop-color="#00A1FF"/>
<stop offset="0.26" stop-color="#00BEFF"/>
<stop offset="0.51" stop-color="#00D2FF"/>
<stop offset="0.76" stop-color="#00DFFF"/>
<stop offset="1" stop-color="#00E3FF"/>
</linearGradient>
<linearGradient id="paint1_linear_1401_1652" x1="73.5441" y1="43.4782" x2="20.9571" y2="43.4782" gradientUnits="userSpaceOnUse">
<stop stop-color="#FFE000"/>
<stop offset="0.41" stop-color="#FFBD00"/>
<stop offset="0.78" stop-color="#FFA500"/>
<stop offset="1" stop-color="#FF9C00"/>
</linearGradient>
<linearGradient id="paint2_linear_1401_1652" x1="53.976" y1="48.4783" x2="4.4977" y2="97.9348" gradientUnits="userSpaceOnUse">
<stop stop-color="#FF3A44"/>
<stop offset="1" stop-color="#C31162"/>
</linearGradient>
<linearGradient id="paint3_linear_1401_1652" x1="15.8673" y1="0.391315" x2="37.9542" y2="22.4783" gradientUnits="userSpaceOnUse">
<stop stop-color="#32A071"/>
<stop offset="0.07" stop-color="#2DA771"/>
<stop offset="0.48" stop-color="#15CF74"/>
<stop offset="0.8" stop-color="#06E775"/>
<stop offset="1" stop-color="#00F076"/>
</linearGradient>
<clipPath id="clip0_1401_1652">
<rect width="293.478" height="86.9565" fill="white"/>
</clipPath>
</defs>
</svg>
