<svg width="347" height="373" viewBox="0 0 347 373" fill="none" xmlns="http://www.w3.org/2000/svg">
<path d="M221.661 278.547C200.335 339.034 96.5859 304.031 35.5734 255.989C78.2146 133.385 113.241 86.9764 157.549 47.3986C201.856 7.82077 283.415 139.418 295.149 174.746C306.883 210.075 242.986 218.06 221.661 278.547Z" fill="#FFC900"/>
<path d="M316.495 170.442C318.285 173.801 317.598 178.808 317.075 182.451C316.262 188.113 314.935 194.331 311.787 199.119C304.455 210.273 295.846 217.82 284.354 223.81C273.877 229.27 262.962 233.358 252.273 238.26C236.996 245.266 222.993 254.85 211.225 267.473C201.628 277.768 197.056 291.248 190.648 303.671C188.068 308.673 185.323 313.904 181.816 318.236C178.933 321.797 176.33 326.127 172.989 329.219C170.875 331.174 169.153 334.195 166.739 335.688C165.692 336.335 164.01 337.648 163.22 338.637C161.767 340.454 158.583 342.276 156.601 343.502" stroke="#FAFAFA" stroke-linecap="round"/>
<path d="M307.807 162.805C309.412 165.818 308.549 170.462 307.899 173.841C306.888 179.094 305.357 184.882 302.114 189.436C294.56 200.044 285.909 207.387 274.52 213.428C264.139 218.934 253.385 223.197 242.819 228.198C227.717 235.347 213.751 244.813 201.835 256.977C192.117 266.897 187.151 279.521 180.445 291.257C177.746 295.981 174.876 300.925 171.303 305.075C168.365 308.487 165.669 312.593 162.305 315.594C160.177 317.491 158.387 320.352 155.986 321.837C154.944 322.481 153.261 323.767 152.455 324.713C150.973 326.454 147.812 328.277 145.84 329.496" stroke="#FAFAFA" stroke-linecap="round"/>
</svg>
