<svg width="240" height="212" viewBox="0 0 240 212" fill="none" xmlns="http://www.w3.org/2000/svg">
<path d="M80.0521 166.221C80.669 164.638 80.8166 163.923 81.5683 162.531C82.3455 162.394 86.0251 165.329 87.4924 166.063C92.0605 168.347 96.8549 170.168 101.72 171.645C103.487 172.181 105.356 172.111 107.138 172.557C108.452 172.885 109.963 173.119 111.315 173.227C114.008 173.443 116.803 173.468 119.505 173.468C120.998 173.468 122.454 173.24 123.948 173.24C125.804 173.24 127.569 172.583 129.417 172.557C132.647 172.511 135.832 171.593 138.936 170.734C141.679 169.974 144.762 169.771 147.404 168.683C149.891 167.659 152.734 167.713 154.923 165.962C155.648 165.381 159.993 160.832 160.176 164.126C160.261 165.647 160.889 167.483 161.429 168.924C162.564 171.95 163.609 175.099 164.391 178.227C165.12 181.143 166.162 184.07 167.138 186.911C167.709 188.572 169.011 195.101 169.495 196.795C169.772 197.767 157.133 196.926 156.499 197.848C148.554 197.848 139.22 199.852 131.271 199.852C128.371 199.852 89.8241 200.078 86.9323 199.852C83.7407 200.224 83.2325 200.08 80.0521 199.852C78.3132 199.728 75.6048 199.264 73.9364 199.088C73.3353 199.025 71.2883 199.211 71.2491 198.544C71.1472 196.811 70.8594 192.637 70.8594 190.898C70.8594 188.013 72.2892 184.262 73.1719 181.51C74.1524 178.453 75.3519 175.281 76.9943 172.557C78.2593 170.458 79.1641 168.499 80.0521 166.221Z" fill="#F8F5EC" stroke="black" stroke-linecap="round"/>
<path d="M86.8037 133.572C85.4558 138.771 84.7522 144.632 84.7522 149.999C85.6976 150.472 85.9388 151.193 86.934 151.691C88.494 152.471 90.0609 153.82 91.5208 154.749C93.6736 156.119 95.3432 155.513 98.401 156.278C101.459 157.042 104.605 157.784 106.851 158.13C109.877 158.595 112.75 158.688 115.841 158.688C119.624 158.688 121.376 158.571 125.157 158.571C130.712 158.571 135.836 157.273 141.211 156.278C142.891 155.966 146.924 153.945 148.544 153.378C149.692 152.977 151.072 152.499 152.3 152.443C153.573 152.385 155.744 152.074 156.147 150.663C156.906 148.007 154.533 145.207 154.533 142.517C154.533 140.913 153.694 138.634 154.397 137.087C154.874 136.037 154.842 134.34 155.136 133.165C155.456 131.884 155.877 130.642 156.222 129.364C157.954 122.954 160.163 116.699 161.864 110.297C163.016 105.958 163.764 100.948 163.764 96.4497C163.764 93.5905 164.124 90.3114 163.357 87.5499C162.491 84.4333 163.169 85.3202 162.616 82.1245C162.371 80.7058 162.616 77.446 162.616 76.0087V70.6575C162.616 68.8936 161.045 66.1263 161.381 64.4105C161.596 63.3128 161.54 61.801 161.999 60.7902C162.632 59.3987 162.296 57.3455 163.282 56.114C165.631 53.1766 167.898 48.672 168.863 44.9214C170.331 39.2129 171.945 33.3292 171.08 27.2727C170.695 24.5734 169.585 21.998 168.863 19.3986C168.075 16.5621 166.544 14.0972 165.258 11.5246C164.142 9.29398 161.969 6.46235 159.903 5.00814C158.014 3.67909 156.154 2.8117 153.824 3.24326C151.676 3.64092 149.102 4.05587 149.102 6.84843C149.102 9.26777 148.85 11.8371 149.117 14.2398C149.427 17.0307 149.456 19.918 148.695 22.6569C148.353 23.8871 148.35 25.1722 147.956 26.3978C147.442 27.9962 146.844 29.7135 146.447 31.3455C145.476 35.3395 141.466 33.9718 138.513 32.6427C133.154 30.2313 127.353 29.5732 121.558 29.9728C119.485 30.1157 117.444 29.9403 115.374 30.1991C113.728 30.4048 111.975 30.6809 110.335 30.8024C109.295 30.8795 104.517 33.9631 102.223 37.021C98.401 32.4342 98.7677 31.9646 98.401 30.9053C97.9071 29.4783 96.8721 26.3802 96.8721 24.7895C96.8721 22.5157 99.1125 17.9466 99.1655 15.6159C99.2802 10.5702 100.032 7.84266 97.6645 3.1075C96.5844 0.947297 94.499 0.391757 92.0833 0.99569C89.2321 1.70849 88.2697 3.11334 86.1696 4.91342C84.0589 6.72254 82.0411 9.34809 80.8183 11.7936C75.2487 18.5711 75.467 35.492 76.2315 43.9012C77.7604 47.7235 79.2894 49.2524 80.4079 51.3021C80.6523 52.7069 85.2259 60.0503 85.4051 61.4839C85.6422 63.3807 82.3473 71.1026 82.3473 72.9509C82.3473 75.0962 79.2894 82.8889 80.9359 97.4138C82.3473 105.058 83.4388 107.303 84.6407 111.939C85.6098 115.677 88.642 119.437 88.5535 123.33C88.4757 126.752 87.6635 130.256 86.8037 133.572Z" fill="#F8F5EC" stroke="black" stroke-linecap="round"/>
<path d="M9.21375 199.839C11.2811 199.392 24.4359 199.854 26.5415 199.854C29.5241 199.854 29.6745 199.853 32.6572 199.853C34.7371 199.853 32.7144 197.9 34.8289 197.9C36.9675 197.9 39.2147 197.691 41.302 198.142C42.9962 198.509 44.8681 198.127 46.5981 198.367C48.2771 198.601 50.0483 198.692 51.7384 198.817C54.3091 199.008 56.782 199.458 59.3538 199.458C64.9582 199.458 70.4349 199.769 76.021 199.769C81.7538 199.769 87.4792 200.392 93.2593 200.392H113.959C131.155 200.392 148.368 197.9 165.588 197.9C170.201 197.9 174.804 198.108 179.382 198.212C182.835 198.29 186.274 198.835 189.766 198.835C192.636 198.835 195.448 198.523 198.316 198.523C207.692 198.523 217.027 197.9 226.372 197.9C227.745 197.9 229.364 197.669 230.716 197.969C231.527 198.15 232.804 197.942 233.52 198.281C234.406 198.701 235.186 200.175 235.629 201.012L235.631 201.016C236.312 202.301 237.576 203.554 238.124 204.996C238.324 205.526 239.101 206.927 238.989 207.489C238.951 207.679 237.162 207.558 236.877 207.558C235.147 207.558 233.356 207.431 231.633 207.575C229.277 207.771 226.669 207.625 224.347 208.025C221.424 208.529 218.104 208.492 215.139 208.492H210.501C209.198 208.492 208.013 208.974 206.71 208.648C204.764 208.162 202.623 208.84 200.635 208.804C198.999 208.774 197.472 208.78 195.824 208.804C193.667 208.835 191.508 208.804 189.351 208.804C185.867 208.804 182.214 209.207 178.759 209.808C171.806 211.017 164.465 210.257 157.47 209.739C147.713 209.016 138 208.492 128.221 208.492C118.318 208.492 108.414 209.488 98.5554 210.292C93.4474 210.709 88.1694 210.915 83.0478 210.985C78.4649 211.047 73.9157 211.608 69.3402 211.608H44.5904C39.5694 211.608 34.5736 210.673 29.6021 210.673C23.5576 210.673 17.4859 210.362 11.3945 210.362C10.1575 210.362 8.72753 210.564 7.51761 210.344C6.65322 210.187 1.36018 210.367 1.13112 209.565C0.498605 207.352 2.35996 205.13 2.35996 202.902C2.35996 198.82 6.44386 200.437 9.21375 199.839Z" fill="#783F20" stroke="black" stroke-width="1.5" stroke-linecap="round"/>
<path d="M107.576 60.9199C105.191 60.9199 102.747 60.7313 100.406 60.7313C97.9296 60.7313 94.4236 60.4509 92.7085 62.9006C92.0065 63.9033 91.321 64.6425 90.8973 65.8664C90.5287 66.931 89.7464 68.3446 89.7464 69.5029C89.7464 70.5382 89.2735 71.6021 89.237 72.6573C89.1939 73.9017 89.3159 74.8525 89.5766 76.0109" stroke="black" stroke-width="0.7" stroke-linecap="round"/>
<path d="M89.0748 72.6104C88.1074 72.6104 87.3017 72.4779 86.3724 72.2714C85.8434 72.1538 86.0126 71.6023 85.5879 71.39" stroke="black" stroke-width="0.5" stroke-linecap="round"/>
<path d="M89.0745 69.1223C87.7603 69.1223 87.9305 68.5339 86.9824 67.9019" stroke="black" stroke-width="0.5" stroke-linecap="round"/>
<path d="M89.7723 66.8582C89.6436 66.2788 88.0267 65.1133 87.5059 64.7661" stroke="black" stroke-width="0.5" stroke-linecap="round"/>
<path d="M94.8281 59.0117C95.963 58.8698 96.8223 57.9656 98.0535 57.9656C99.1673 57.9656 100.366 57.7913 101.531 57.7913C103.737 57.7913 105.697 58.9543 107.555 59.8834" stroke="black" stroke-width="0.7" stroke-linecap="round"/>
<path d="M134.646 62.3853C135.154 61.4271 136.234 61.1161 137.179 60.8013C138.267 60.4386 139.748 60.4121 140.871 60.5726C141.331 60.6383 141.778 60.5733 142.227 60.673C142.685 60.7749 143.364 60.779 143.827 60.779C144.811 60.779 146.014 61.4646 146.895 61.861C148.155 62.4279 148.963 63.0929 149.907 64.0921C150.417 64.6322 150.79 65.2112 151.212 65.8212C151.408 66.1032 151.533 66.4211 151.737 66.7025C152.026 67.1035 152.092 67.5597 152.367 67.9575C152.775 68.5465 152.801 69.2835 153.075 69.9097C153.384 70.615 153.492 71.3319 153.627 72.0794C153.799 73.0258 153.933 74.1023 153.622 75.0356" stroke="black" stroke-width="0.7" stroke-linecap="round"/>
<path d="M154.523 73.2282C154.845 73.1924 155.105 72.5668 155.349 72.3469C155.602 72.1187 156.023 71.7428 156.13 71.421" stroke="black" stroke-width="0.5" stroke-linecap="round"/>
<path d="M153.521 70.1143C153.572 70.5224 154.679 69.7494 154.804 69.5119C154.929 69.2758 155.202 68.8223 155.429 68.7087" stroke="black" stroke-width="0.5" stroke-linecap="round"/>
<path d="M152.418 67.9037C152.757 67.6778 153.359 67.7087 153.757 67.6025C153.944 67.5524 153.933 67.3496 154.047 67.2232C154.132 67.1281 154.689 66.5985 154.526 66.5985" stroke="black" stroke-width="0.5" stroke-linecap="round"/>
<path d="M133.945 60.6611C134.285 60.3213 134.785 60.0751 135.18 59.8002C135.485 59.5882 135.743 59.3023 136.06 59.1119C136.348 58.9394 136.672 58.7943 136.979 58.6586C138.223 58.1086 139.539 58.1533 140.87 58.1533C142.299 58.1533 143.747 58.3418 145.137 58.6753C145.462 58.7535 145.77 58.8123 146.081 58.9477C146.43 59.1001 146.793 59.2656 147.158 59.3802C147.401 59.4568 147.606 59.5473 147.823 59.6796C147.933 59.7465 148.047 59.8348 148.168 59.8751" stroke="black" stroke-width="0.7" stroke-linecap="round"/>
<path d="M105.316 88.4515C105.381 88.3279 105.446 88.2033 105.51 88.0779C105.64 87.56 105.891 87.0148 106.12 86.5314C106.19 86.3837 106.228 86.1563 106.319 85.9965C106.346 85.9476 106.379 85.905 106.419 85.873C106.765 85.5965 106.65 84.939 106.888 84.6417C107.065 84.4205 107.107 83.9475 107.242 83.6786C107.438 83.2871 107.741 82.9674 107.955 82.5875C108.525 81.5749 109.254 80.6646 109.93 79.7287C111.336 77.7824 112.913 76.0038 114.428 74.1391C115.029 73.4003 115.924 72.6995 116.787 72.2678C117.586 71.8687 118.488 71.2803 119.421 71.2803C121.164 71.2803 122.72 72.3532 124.382 72.731C125.782 73.049 127.008 73.8785 128.308 74.4561C129.884 75.1567 131.395 75.9296 132.691 77.0954C134.783 78.9783 136.503 81.2309 138.488 83.2154C139.249 83.9765 139.726 84.9385 140.377 85.7755C140.729 86.2273 141.038 87.0018 141.254 87.5404L141.255 87.5432C141.498 88.1495 141.801 88.7941 141.913 89.4389C142.178 90.9635 142.249 92.4861 142.438 94.0167C142.698 96.1328 142.789 98.5835 142.401 100.691C142.041 102.644 141.509 104.471 140.377 106.122C139.738 107.056 138.671 107.741 137.86 108.518C137.052 109.292 135.992 109.926 135.025 110.475C132.545 111.884 129.596 112.568 126.839 113.242C125.057 113.678 122.931 114.225 121.091 113.742C118.996 113.192 116.965 112.346 114.806 111.986C113.078 111.698 111.371 111.318 109.656 110.975C108.455 110.734 107.688 110.019 106.864 109.195C106.258 108.588 106.109 107.84 105.706 107.134C105.433 106.658 105.335 106.068 105.096 105.568C104.835 105.023 104.438 104.467 104.084 103.977C103.422 103.059 102.835 101.685 102.634 100.576C102.351 99.0216 102.125 97.4565 102.359 95.8637C102.584 94.3363 102.628 92.9631 103.536 91.6638C104.231 90.6678 104.75 89.5233 105.316 88.4515Z" fill="#DECFB8"/>
<path d="M106.474 85.6536C106.292 85.8962 106.297 86.1919 106.206 86.4704C105.981 87.1552 105.651 87.8158 105.316 88.4515C104.75 89.5233 104.231 90.6678 103.536 91.6638C102.628 92.9631 102.584 94.3363 102.359 95.8637C102.125 97.4565 102.351 99.0216 102.634 100.576C102.835 101.685 103.422 103.059 104.084 103.977C104.438 104.467 104.835 105.023 105.096 105.568C105.335 106.068 105.433 106.658 105.706 107.134C106.109 107.84 106.258 108.588 106.864 109.195C107.688 110.019 108.455 110.734 109.656 110.975C111.371 111.318 113.078 111.698 114.806 111.986C116.965 112.346 118.996 113.192 121.091 113.742C122.931 114.225 125.057 113.678 126.839 113.242C129.596 112.568 132.545 111.884 135.025 110.475C135.992 109.926 137.052 109.292 137.86 108.518C138.671 107.741 139.738 107.056 140.377 106.122C141.509 104.471 142.041 102.644 142.401 100.691C142.789 98.5835 142.698 96.1328 142.438 94.0167C142.249 92.4861 142.178 90.9635 141.913 89.4389C141.801 88.7941 141.498 88.1495 141.255 87.5432C141.04 87.0046 140.729 86.2281 140.377 85.7755C139.726 84.9385 139.249 83.9765 138.488 83.2154C136.503 81.2309 134.783 78.9783 132.691 77.0954C131.395 75.9296 129.884 75.1567 128.308 74.4561C127.008 73.8785 125.782 73.049 124.382 72.731C122.72 72.3532 121.164 71.2803 119.421 71.2803C118.488 71.2803 117.586 71.8687 116.787 72.2678C115.924 72.6995 115.029 73.4003 114.428 74.1391C112.913 76.0038 111.336 77.7824 109.93 79.7287C109.254 80.6646 108.525 81.5749 107.955 82.5875C107.741 82.9674 107.438 83.2871 107.242 83.6786C107.107 83.9475 107.065 84.4205 106.888 84.6417C106.65 84.939 106.765 85.5965 106.419 85.873C106.248 86.0094 106.212 86.3385 106.12 86.5314C105.877 87.0458 105.608 87.6303 105.486 88.1772" stroke="black" stroke-width="0.3" stroke-linecap="round"/>
<path d="M115.141 86.0692C114.872 85.8949 114.848 84.9186 114.593 84.8867C114.454 84.4152 115.98 84.2765 117.727 84.143C119.255 84.1377 119.433 84.143 120.104 84.143C121.013 84.143 121.879 84.1437 122.798 84.1437C123.647 84.1437 124.654 83.955 125.483 84.1445C126.232 84.3157 127.087 84.4418 127.698 84.9416C128.768 85.8167 127.085 86.8775 126.442 87.52C125.202 88.7605 124.132 90.3435 122.688 91.3602C122.356 91.5936 122.099 91.9282 121.779 92.177C121.659 92.2706 121.316 91.944 121.176 91.8539C120.623 91.4984 120.101 91.014 119.53 90.647C118.312 89.8642 117.517 88.5788 116.513 87.5748C116.225 87.2866 116.059 86.9906 115.714 86.7519C115.46 86.576 115.36 86.2109 115.141 86.0692Z" fill="#0B0B0B" stroke="black" stroke-width="0.5" stroke-linecap="round"/>
<path d="M82.5206 22.7931C82.9375 21.6316 84.6402 17.1442 86.1691 15.6153C87.6981 14.0862 89.6512 12.2084 91.496 12.8234C93.4553 13.4765 93.6566 15.2904 93.3347 17.1817C92.8886 19.8027 92.2261 22.4011 91.8093 25.0267C91.4441 27.3277 90.6874 29.8032 91.8365 32.0409C92.1285 32.6095 92.4717 33.1553 92.6946 33.757C92.9287 34.3892 93.4295 34.8147 93.7365 35.405C94.27 36.4311 95.1463 37.2678 95.7318 38.2652C96.5555 39.6686 97.6864 41.7116 96.2494 43.073C94.7932 44.4526 92.5406 45.3966 91.5914 47.2951C91.1481 48.1817 90.5675 50.3051 89.2896 50.3051C88.6041 50.3051 87.5632 49.3625 87.1786 48.8069C86.826 48.2976 86.2101 47.9815 85.8915 47.4858C85.4644 46.8215 84.8664 46.1645 84.3865 45.5246C83.3112 44.0908 82.8452 42.6139 82.4933 40.8938C81.5765 36.4115 81.5909 31.8737 81.6625 27.2876C81.6848 25.8609 82.0398 24.1323 82.5206 22.7931Z" fill="#FDE0EB" stroke="black" stroke-width="0.5" stroke-linecap="round"/>
<path d="M155.332 23.4525C155.332 20.8396 155.572 19.6953 154.971 17.1434C154.676 15.8872 154.701 14.5111 155.332 14.5111C155.829 14.5111 156.304 14.6155 156.776 14.6337C158.217 14.6891 159.691 15.6267 160.842 16.4179C163.495 18.2419 163.648 21.7831 164.185 24.6851C164.618 27.0234 165.261 29.3078 165.261 31.6993C165.261 32.8545 165.207 33.9331 165.043 35.077C164.86 36.3612 164.358 37.5989 163.974 38.8361C163.797 39.4072 163.535 39.9293 163.355 40.4977C163.143 41.1633 162.876 41.8357 162.565 42.459C161.994 43.6007 161.652 44.8852 160.964 45.9593C160.446 46.7692 159.772 47.4104 159.439 48.3427C159.297 48.7387 159.148 49.293 158.765 49.5413C158.277 49.8565 158.309 49.9805 157.757 49.9363C157.17 49.8893 156.796 49.3363 156.436 48.9556C156.037 48.535 155.773 48.072 155.428 47.6073C155.171 47.2615 154.968 46.9301 154.815 46.5313C154.709 46.2548 154.379 46.0988 154.236 45.8367C153.99 45.3853 153.598 44.8075 153.187 44.4883C152.744 44.1438 152.224 44.0222 151.832 43.6303C151.115 42.9135 151.142 41.8136 151.165 40.841L151.165 40.8382C151.195 39.5879 151.667 38.0705 152.2 36.9429C153.001 35.2467 153.652 33.3915 154.291 31.6176C155.208 29.0684 155.332 26.1378 155.332 23.4525Z" fill="#FDE0EB" stroke="black" stroke-width="0.5" stroke-linecap="round"/>
<circle cx="132.8" cy="185.327" r="8.40912" fill="#ADD5FA"/>
<circle cx="152.677" cy="180.741" r="8.40912" fill="#F182AA"/>
<circle cx="107.195" cy="186.55" r="8.40912" transform="rotate(30 107.195 186.55)" fill="#F182AA"/>
<circle cx="86.752" cy="180.78" r="8.40912" transform="rotate(45 86.752 180.78)" fill="#ADD5FA"/>
<rect x="127.451" y="173.336" width="3.05786" height="5.15258" transform="rotate(-19.1503 127.451 173.336)" fill="#ADD5FA"/>
<rect x="147.326" y="168.744" width="3.05786" height="5.15258" transform="rotate(-19.1503 147.326 168.744)" fill="#F182AA"/>
<rect x="108.553" y="173.484" width="3.05786" height="5.15258" transform="rotate(10.8497 108.553 173.484)" fill="#F182AA"/>
<rect x="91.4453" y="168.513" width="3.05786" height="5.15258" transform="rotate(25.8497 91.4453 168.513)" fill="#ADD5FA"/>
<path d="M103.777 63.0691C103.933 63.1474 104.506 63.4207 104.529 63.6059C104.674 63.8428 105.383 64.2207 105.545 64.4461C106.25 65.4224 106.698 66.5925 107.143 67.703C107.406 68.3618 107.591 69.0225 107.692 69.7204C107.746 70.089 107.677 70.5152 107.653 70.8873C107.629 71.2829 107.509 71.6304 107.412 72.0075C107.342 72.2815 107.13 72.6489 106.826 72.661C106.343 72.6803 106.039 72.9823 105.766 73.3611C105.086 74.3017 104.968 75.4541 104.368 76.4365C104.088 76.894 103.823 77.4083 103.476 77.8187C103.232 78.1069 102.932 78.1687 102.558 78.1687C102.096 78.1687 101.641 78.2154 101.179 78.2154C100.935 78.2154 100.707 78.1979 100.468 78.1713C100.178 78.1391 99.8629 78.1562 99.5812 78.0857C99.1327 77.9736 98.7446 77.9086 98.3572 77.6553C98.0891 77.48 97.9817 77.3107 97.7842 77.0693C97.521 76.7476 97.3961 76.2809 97.2241 75.9024C97.0771 75.579 97.0083 75.2219 96.8481 74.9014C96.6085 74.4222 96.3705 73.9496 96.1038 73.4778C95.8802 73.0822 95.5551 72.7476 95.3337 72.3602C95.1707 72.0749 94.8115 72.1944 94.5661 72.0542C94.3531 71.9325 94.2135 71.4669 94.2135 71.2374C94.2135 70.8495 94.2038 70.4068 94.2627 70.0238C94.3285 69.5965 94.4822 69.2013 94.5973 68.7869C94.8915 67.7277 95.2167 66.6099 95.7745 65.6493C96.1933 64.928 96.6503 64.2802 97.2474 63.6993C97.7773 63.1837 98.5392 62.9649 99.2078 62.6724C100.406 62.1482 101.573 62.1257 102.799 62.509C103.163 62.6229 103.434 62.8977 103.777 63.0691Z" fill="#0B0B0B" stroke="#0B0B0B" stroke-width="0.5" stroke-linecap="round"/>
<path d="M145.06 63.0691C145.217 63.1474 145.789 63.4207 145.812 63.6059C145.957 63.8428 146.666 64.2207 146.828 64.4461C147.534 65.4224 147.982 66.5925 148.426 67.703C148.689 68.3618 148.874 69.0225 148.976 69.7204C149.029 70.089 148.96 70.5152 148.937 70.8873C148.912 71.2829 148.793 71.6304 148.696 72.0075C148.625 72.2815 148.413 72.6489 148.109 72.661C147.626 72.6803 147.323 72.9823 147.049 73.3611C146.37 74.3017 146.252 75.4541 145.651 76.4365C145.372 76.894 145.106 77.4083 144.759 77.8187C144.515 78.1069 144.216 78.1687 143.841 78.1687C143.379 78.1687 142.925 78.2154 142.462 78.2154C142.219 78.2154 141.99 78.1979 141.751 78.1713C141.461 78.1391 141.146 78.1562 140.864 78.0857C140.416 77.9736 140.028 77.9086 139.64 77.6553C139.372 77.48 139.265 77.3107 139.067 77.0693C138.804 76.7476 138.679 76.2809 138.507 75.9024C138.36 75.579 138.291 75.2219 138.131 74.9014C137.892 74.4222 137.654 73.9496 137.387 73.4778C137.163 73.0822 136.838 72.7476 136.617 72.3602C136.454 72.0749 136.095 72.1944 135.849 72.0542C135.636 71.9325 135.497 71.4669 135.497 71.2374C135.497 70.8495 135.487 70.4068 135.546 70.0238C135.612 69.5965 135.765 69.2013 135.88 68.7869C136.175 67.7277 136.5 66.6099 137.058 65.6493C137.477 64.928 137.934 64.2802 138.531 63.6993C139.06 63.1837 139.822 62.9649 140.491 62.6724C141.689 62.1482 142.856 62.1257 144.082 62.509C144.447 62.6229 144.717 62.8977 145.06 63.0691Z" fill="#0B0B0B" stroke="#0B0B0B" stroke-width="0.5" stroke-linecap="round"/>
<path d="M93.9825 72.8022C93.9825 74.105 93.668 75.3848 93.8995 76.6867C93.9983 77.2426 94.189 78.0421 94.5426 78.4966C94.6958 78.6937 94.8273 78.9729 94.9393 79.1968C95.0463 79.4107 95.2366 79.5953 95.3257 79.8139C95.4733 80.1762 95.8449 80.4704 96.0621 80.7863C96.3165 81.1564 96.6466 81.4149 96.9593 81.7276C97.547 82.3154 98.103 82.9492 98.8004 83.3976C99.19 83.648 99.7472 83.911 100.216 83.911C100.507 83.911 100.814 83.9407 101.1 83.8877C101.416 83.8292 101.734 83.7243 102.057 83.7243C102.541 83.7243 102.997 83.4436 103.46 83.3509C103.739 83.2952 104.044 83.062 104.295 82.9282C104.42 82.8616 104.572 82.7429 104.661 82.63C104.804 82.4467 104.976 82.3124 105.128 82.1373C105.393 81.8304 105.7 81.4929 105.921 81.1572C106.161 80.7919 106.292 80.398 106.492 80.0136C106.823 79.3748 107.124 78.7612 107.378 78.0869C107.628 77.4264 107.477 76.6756 107.422 75.9969C107.373 75.376 107.303 74.7797 107.285 74.1558C107.281 73.9977 107.247 73.4623 107.122 73.3623C106.904 73.1881 107.004 72.9974 106.621 73.1393C105.735 73.4674 105.629 74.6896 105.138 75.359C104.837 75.7698 104.688 76.3062 104.368 76.697C104.065 77.0672 103.81 77.4092 103.411 77.6928C102.949 78.0212 102.447 78.2193 101.889 78.2607C101.404 78.2966 100.791 78.3318 100.32 78.1803C100.125 78.1178 99.9357 78.09 99.7599 77.9832C99.5565 77.8598 99.3254 77.7278 99.0934 77.6565C98.7849 77.5615 98.369 77.3625 98.1366 77.143C97.2818 76.3358 96.853 75.2386 96.5392 74.1091C96.433 73.7265 96.215 73.3656 95.9662 73.0615C95.8468 72.9157 95.7413 72.7103 95.5928 72.5948C95.4799 72.507 95.3502 72.431 95.2427 72.3355C95.1187 72.2253 94.7688 72.1487 94.6126 72.1487C94.3346 72.1487 94.1104 72.0208 93.8891 72.2421" stroke="#0B0B0B" stroke-width="0.3" stroke-linecap="round"/>
<path d="M135.264 72.8022C135.264 74.105 134.949 75.3848 135.181 76.6867C135.28 77.2426 135.47 78.0421 135.824 78.4966C135.977 78.6937 136.109 78.9729 136.221 79.1968C136.328 79.4107 136.518 79.5953 136.607 79.8139C136.755 80.1762 137.126 80.4704 137.343 80.7863C137.598 81.1564 137.928 81.4149 138.241 81.7276C138.828 82.3154 139.384 82.9492 140.082 83.3976C140.471 83.648 141.028 83.911 141.497 83.911C141.788 83.911 142.096 83.9407 142.382 83.8877C142.698 83.8292 143.015 83.7243 143.339 83.7243C143.822 83.7243 144.278 83.4436 144.741 83.3509C145.02 83.2952 145.326 83.062 145.576 82.9282C145.701 82.8616 145.854 82.7429 145.942 82.63C146.086 82.4467 146.257 82.3124 146.409 82.1373C146.674 81.8304 146.982 81.4929 147.202 81.1572C147.442 80.7919 147.573 80.398 147.773 80.0136C148.104 79.3748 148.405 78.7612 148.66 78.0869C148.909 77.4264 148.758 76.6756 148.704 75.9969C148.654 75.376 148.584 74.7797 148.566 74.1558C148.562 73.9977 148.528 73.4623 148.403 73.3623C148.185 73.1881 148.286 72.9974 147.902 73.1393C147.017 73.4674 146.91 74.6896 146.419 75.359C146.118 75.7698 145.969 76.3062 145.649 76.697C145.346 77.0672 145.091 77.4092 144.692 77.6928C144.23 78.0212 143.729 78.2193 143.17 78.2607C142.685 78.2966 142.073 78.3318 141.601 78.1803C141.407 78.1178 141.217 78.09 141.041 77.9832C140.838 77.8598 140.607 77.7278 140.375 77.6565C140.066 77.5615 139.65 77.3625 139.418 77.143C138.563 76.3358 138.134 75.2386 137.82 74.1091C137.714 73.7265 137.496 73.3656 137.247 73.0615C137.128 72.9157 137.023 72.7103 136.874 72.5948C136.761 72.507 136.631 72.431 136.524 72.3355C136.4 72.2253 136.05 72.1487 135.894 72.1487C135.616 72.1487 135.392 72.0208 135.17 72.2421" stroke="#0B0B0B" stroke-width="0.3" stroke-linecap="round"/>
<path d="M61.2311 183.329C66.2103 187.097 67.8877 193.318 70.4648 198.759C70.7923 199.45 64.2371 198.292 61.3216 197.844C60.742 197.755 59.4121 196.512 59.2496 195.943C58.9914 195.039 57.9037 194.866 57.2882 194.374C56.6054 193.827 56.5235 193.899 55.9806 194.414C55.3795 194.983 55.0287 195.473 54.673 196.224C54.0601 197.518 54.3647 198.964 52.3796 198.397C51.3625 198.106 50.3895 197.54 49.3721 197.23C48.2488 196.888 47.0677 196.693 45.9221 196.446C44.1217 196.056 42.203 196.224 40.3698 196.224C38.1182 196.224 35.9026 196.299 33.6507 196.395C31.7358 196.477 29.8503 196.586 27.9274 196.586C26.8684 196.586 25.7005 196.542 24.93 195.772C24.0626 194.904 24.7741 192.868 25.2016 191.879C25.7699 190.565 25.9415 189.148 26.65 187.856C27.4765 186.349 28.1607 184.738 29.225 183.37C31.3896 180.587 34.889 179.17 38.0563 177.938C41.7569 176.499 46.8536 177.513 50.559 178.391C54.4265 179.307 58.0548 180.926 61.2311 183.329Z" fill="#F8F5EC" stroke="black" stroke-linecap="round"/>
<path d="M171.635 197.043C171.386 197.43 171.027 197.559 170.334 198.795C170.192 198.831 177.237 199.415 180.449 198.831C181.486 198.643 182.852 198.72 182.852 197.332C182.852 197.001 183.527 194.757 183.827 195.056C184.292 195.521 184.498 196.191 184.965 196.682C185.469 197.213 185.875 197.887 186.265 198.506C187.037 199.731 187.556 200.421 189.156 200.421C191.818 200.421 194.59 199.762 197.157 199.12C199.147 198.623 201.166 198.243 203.172 197.82C205.419 197.346 207.565 196.508 209.801 195.996C210.991 195.723 214.877 195.217 214.877 193.431C214.877 192.416 213.898 191.245 213.378 190.378C211.84 187.815 209.967 184.433 207.236 182.99C203.878 181.216 200.654 178.589 196.832 177.824C194.836 177.425 192.552 177.275 190.528 177.463C188.377 177.663 186.346 178.067 184.351 178.926C180.89 180.417 179.188 182.947 178.101 186.44C177.135 189.544 175.816 192.211 173.585 194.569C172.893 195.3 172.179 196.196 171.635 197.043Z" fill="#F8F5EC" stroke="black" stroke-linecap="round"/>
<path d="M51.9779 203.446C52.4376 202.334 53.5549 200.612 53.4228 199.273C53.4513 198.921 53.3628 198.167 53.1936 198.031C52.4661 197.449 51.6764 197.297 50.7622 197.144C48.9553 196.843 47.1026 196.646 45.275 196.5C43.2634 196.339 41.313 196.494 39.3016 196.494C36.9492 196.494 34.4661 197.248 32.1322 196.756C31.2711 196.575 30.3782 196.626 29.5036 196.612C28.7086 196.599 27.9388 196.362 27.1511 196.283C26.308 196.199 24.8656 196.516 24.1282 196.047C23.9623 195.941 23.7392 196.972 23.7077 197.085C23.2498 198.733 22.8379 200.404 22.4985 202.079C22.0585 204.252 21.6068 207.053 22.3211 209.196C22.5525 209.891 22.5399 209.739 23.1425 209.63C23.6548 209.537 24.1515 209.42 24.6868 209.38C27.0483 209.205 29.6057 209.241 31.9614 209.571C34.5089 209.927 36.9816 210.745 39.4068 211.575C40.8865 212.081 42.2596 212.59 43.7899 212.962C44.8095 213.209 45.8751 213.861 46.931 213.882C48.1464 213.905 48.8269 213.646 49.2048 212.554C49.6591 211.241 49.9446 209.858 50.4139 208.532C51.0118 206.844 51.2851 205.122 51.9779 203.446Z" fill="#F4E4CA"/>
<path d="M53.371 198.978C53.7266 200.349 52.4722 202.25 51.9779 203.446C51.2851 205.122 51.0118 206.844 50.4139 208.532C49.9446 209.858 49.6591 211.241 49.2048 212.554C48.8269 213.646 48.1464 213.905 46.931 213.882C45.8751 213.861 44.8095 213.209 43.7899 212.962C42.2596 212.59 40.8865 212.081 39.4068 211.575C36.9816 210.745 34.5089 209.927 31.9614 209.571C29.6057 209.241 27.0483 209.205 24.6868 209.38C24.1515 209.42 23.6548 209.537 23.1425 209.63C22.5399 209.739 22.5525 209.891 22.3211 209.196C21.6068 207.053 22.0585 204.252 22.4985 202.079C22.8379 200.404 23.2498 198.733 23.7077 197.085C23.7392 196.972 23.9623 195.941 24.1282 196.047C24.8656 196.516 26.308 196.199 27.1511 196.283C27.9388 196.362 28.7086 196.599 29.5036 196.612C30.3782 196.626 31.2711 196.575 32.1322 196.756C34.4661 197.248 36.9492 196.494 39.3016 196.494C41.313 196.494 43.2634 196.339 45.275 196.5C47.1026 196.646 48.9553 196.843 50.7622 197.144C51.6764 197.297 52.4661 197.449 53.1936 198.031C53.4099 198.204 53.4943 199.389 53.371 199.451" stroke="black" stroke-linecap="round"/>
<path d="M38.7031 198.504C38.8128 199.491 38.4665 200.324 38.4665 201.317C38.4665 202.231 38.1614 203.051 38.1117 203.945C38.0662 204.764 37.826 205.8 37.494 206.548C37.3669 206.833 37.3834 207.149 37.2245 207.435C37.0011 207.837 37.0359 207.826 36.8105 207.376" stroke="black" stroke-linecap="round"/>
<path d="M201.244 201.326C201.789 201.667 201.924 203.141 202.083 203.776C202.271 204.527 202.387 205.437 202.464 206.208C202.497 206.532 203.074 208.75 202.464 208.343" stroke="black" stroke-linecap="round"/>
<path d="M216.651 202.01C216.461 199.57 215.366 194.501 215.366 195.263C214.601 195.265 212.897 195.814 212.163 196.15C209.884 197.197 207.478 198.081 205.005 198.534C201.582 199.16 198.183 199.902 194.773 200.593C193.25 200.901 191.834 201.067 190.285 200.975C189.403 200.923 188.537 200.881 187.655 200.942C187.409 200.959 187.112 200.909 186.87 200.963C186.542 201.036 186.892 202.575 186.916 202.734C187.013 203.379 187.201 204.013 187.269 204.661C187.372 205.643 187.531 206.718 187.77 207.673C188.207 209.42 188.351 211.826 190.039 212.9C190.268 213.046 190.898 212.878 191.132 212.793C191.815 212.546 192.558 212.406 193.264 212.239C194.939 211.842 196.624 211.407 198.364 211.388C200.547 211.364 202.73 211.202 204.91 211.425C207.252 211.664 209.634 212.238 211.9 212.867C212.725 213.096 214.264 213.715 215.023 213.032C215.556 212.553 215.886 212.017 216.043 211.314C216.271 210.286 216.432 209.175 216.491 208.125C216.541 207.217 216.658 206.299 216.745 205.392C216.854 204.262 216.738 203.137 216.651 202.01Z" fill="#F4E4CA" stroke="black" stroke-linecap="round"/>
<path d="M201.297 201.598C201.349 201.895 201.467 202.189 201.538 202.484C201.634 202.884 201.656 203.319 201.656 203.73C201.656 204.395 201.735 205.057 201.735 205.723C201.735 206.54 201.735 208.991 201.735 208.174" stroke="black" stroke-linecap="round"/>
<path d="M99.9214 64.3812C100.429 64.0719 101.136 64.0502 101.712 64.0502C102.842 64.2118 103.027 65.538 102.842 65.9392C102.638 66.3802 102.21 66.7255 101.834 67.0124C101.162 67.5247 100.308 67.8837 99.4617 67.7145C99.1712 67.6564 98.8387 67.3779 98.7563 67.0893L98.7536 67.0798C98.6944 66.873 98.6426 66.6915 98.6426 66.4724C98.6426 66.2447 98.7482 66.0019 98.8097 65.782C98.9812 65.1699 99.3918 64.7035 99.9214 64.3812Z" fill="#D9D9D9"/>
<path d="M99.3589 69.5295L99.3614 69.5298C99.9274 69.8937 99.805 70.2387 99.6924 70.5529C99.6277 70.7332 99.5723 70.907 99.3547 70.9139C99.1704 70.9198 98.992 70.9735 98.8131 70.9072C98.4964 70.7899 98.3511 70.3725 98.4219 70.0714C98.4604 69.9078 98.4425 69.7795 98.5791 69.6501C98.7687 69.4705 99.1241 69.5061 99.3589 69.5295Z" fill="#D9D9D9"/>
<path d="M141.709 63.7916C141.999 63.7812 141.977 63.7547 142.742 63.7772C142.998 63.7847 143.701 64.5028 143.763 64.6265C143.851 64.8022 143.964 64.9531 144.019 65.1442C144.084 65.3669 144.081 65.5692 144.04 65.7965C143.995 66.0447 143.838 66.167 143.684 66.3516C143.518 66.5505 143.372 66.794 143.09 66.8065C142.779 66.8203 142.487 66.8423 142.247 66.6135C142.144 66.5141 142.038 66.4318 141.924 66.3441C141.813 66.2586 141.743 66.1095 141.655 66C141.484 65.7861 141.355 65.4566 141.288 65.192C141.232 64.9681 141.186 64.7099 141.232 64.4798C141.282 64.2276 141.375 63.8035 141.709 63.7916Z" fill="#D9D9D9"/>
<path d="M143.87 68.7721C144.041 68.601 144.397 68.5701 144.61 68.5701C144.751 68.5857 144.857 68.9362 144.893 69.0444C144.957 69.2351 145.018 69.4455 145.014 69.6474C145.013 69.7433 145.02 69.9895 144.929 70.0394C144.711 70.1595 144.142 70.4453 143.91 70.2129C143.652 69.9548 143.549 69.6771 143.615 69.3122C143.629 69.2342 143.625 69.1118 143.666 69.0444C143.726 68.9464 143.784 68.8572 143.87 68.7721Z" fill="#D9D9D9"/>
<g filter="url(#filter0_f_1401_3237)">
<circle cx="93.0485" cy="93.59" r="5.35126" fill="#FDE0EB"/>
</g>
<g filter="url(#filter1_f_1401_3237)">
<circle cx="151.148" cy="93.59" r="5.35126" fill="#FDE0EB"/>
</g>
<path d="M121.541 91.2996C121.541 91.5393 121.522 91.771 121.479 92.0075C121.434 92.2536 121.446 92.5015 121.411 92.7462C121.34 93.2381 121.363 93.7575 121.356 94.2545C121.35 94.6946 121.319 95.1352 121.325 95.578C121.331 96.0299 121.44 96.4812 121.448 96.9323C121.455 97.2931 121.493 97.6639 121.602 98.0096C121.677 98.2464 121.707 98.5411 121.855 98.7483C122.022 98.9821 122.173 99.2234 122.348 99.4563C122.55 99.7256 122.802 99.8932 123.086 100.065C123.909 100.563 124.923 100.626 125.863 100.626C127.259 100.626 128.666 100.556 129.998 100.096C130.589 99.8917 131.209 99.6747 131.753 99.3639C132.18 99.1199 132.485 98.6839 132.892 98.4098C133.091 98.2752 133.24 98.1094 133.422 97.9549C133.586 97.8148 133.638 97.6794 133.767 97.5171C133.93 97.3111 134.197 96.9561 134.13 96.6861" stroke="black" stroke-width="0.5" stroke-linecap="round"/>
<path d="M121.448 97.9498C121.448 98.2779 121.136 98.6025 120.932 98.8425C120.557 99.2838 120.027 99.6427 119.507 99.889C118.794 100.227 117.966 100.501 117.185 100.612C116.76 100.673 116.337 100.741 115.908 100.775C115.516 100.805 115.101 100.727 114.707 100.72C114.001 100.707 113.298 100.521 112.645 100.265C111.912 99.9779 111.187 99.593 110.508 99.1982C110.086 98.9531 109.647 98.6853 109.336 98.3055C109.252 98.2027 109.105 98.0527 109.105 97.9191" stroke="black" stroke-width="0.5" stroke-linecap="round"/>
<path d="M153.879 166.368C155.184 165.716 156.503 164.685 157.934 163.902C159.257 163.241 160.285 162.58 159.893 160.819C159.403 158.614 159.235 155.482 157.824 153.668C156.841 152.403 156.873 149.629 154.852 150.078C153.743 150.325 152.56 151.013 151.495 151.448C149.032 152.456 146.519 153.348 143.987 154.134C141.782 154.818 139.354 155.412 137.083 155.887C135.296 156.261 133.611 156.831 131.794 157.052C130.211 157.244 128.665 157.311 127.095 157.6C124.118 158.148 120.777 158.449 117.752 158.449C114.744 158.449 111.476 158.59 108.504 158.23C104.159 157.703 100.02 156.355 95.7904 155.394C92.7289 154.698 90.4937 153.363 87.8992 151.695C87.6014 151.504 85.0865 149.326 84.9947 149.407C84.5994 149.759 83.9926 152.066 83.9535 152.613C83.8563 153.974 82.7479 155.533 82.2273 156.805C81.8017 157.846 80.8342 160.34 81.2957 161.436C82.0631 163.258 83.367 163.761 84.9947 164.888C86.4707 165.91 88.0257 166.639 89.6254 167.409C92.5721 168.828 95.7521 170.305 98.9414 171.053C104.342 172.32 109.498 173.519 115.08 173.519C120.687 173.519 126.602 173.947 132.096 172.78C134.795 172.206 137.455 172.052 140.069 171.108C142.374 170.276 146.535 169.296 148.859 168.508C151.083 167.753 151.771 167.422 153.879 166.368Z" fill="#BC6C6C" stroke="black" stroke-linecap="round"/>
<defs>
<filter id="filter0_f_1401_3237" x="83.6973" y="84.2388" width="18.7031" height="18.7025" filterUnits="userSpaceOnUse" color-interpolation-filters="sRGB">
<feFlood flood-opacity="0" result="BackgroundImageFix"/>
<feBlend mode="normal" in="SourceGraphic" in2="BackgroundImageFix" result="shape"/>
<feGaussianBlur stdDeviation="2" result="effect1_foregroundBlur_1401_3237"/>
</filter>
<filter id="filter1_f_1401_3237" x="141.797" y="84.2388" width="18.7031" height="18.7025" filterUnits="userSpaceOnUse" color-interpolation-filters="sRGB">
<feFlood flood-opacity="0" result="BackgroundImageFix"/>
<feBlend mode="normal" in="SourceGraphic" in2="BackgroundImageFix" result="shape"/>
<feGaussianBlur stdDeviation="2" result="effect1_foregroundBlur_1401_3237"/>
</filter>
</defs>
</svg>
