<svg width="453" height="446" viewBox="0 0 453 446" fill="none" xmlns="http://www.w3.org/2000/svg">
<path d="M73.8476 252.843C-2.49779 200.528 85.0398 68.9898 174.791 1.89053C329.756 107.116 381.361 173.271 419.978 249.81C458.596 326.35 244.709 390.881 191.084 394.042C137.459 397.203 150.193 305.158 73.8476 252.843Z" fill="#FFC900"/>
<path d="M189.106 425.401C183.755 426.64 177.032 423.813 172.15 421.723C164.562 418.476 156.39 414.304 150.892 408.128C138.084 393.742 130.78 378.924 126.723 360.668C123.025 344.026 121.403 327.286 118.563 310.556C114.504 286.646 106.375 263.548 93.1749 242.43C82.4095 225.208 65.3287 213.801 50.4053 200.23C44.3974 194.766 38.1309 188.986 33.4031 182.48C29.5162 177.131 24.4534 171.886 21.3914 166.074C19.4549 162.398 15.8873 158.87 14.7088 154.947C14.1974 153.246 12.9958 150.411 11.9131 148.941C9.92217 146.236 8.57166 141.118 7.60401 137.898" stroke="#505050" stroke-linecap="round"/>
<path d="M203 416.145C198.201 417.257 192.051 414.32 187.583 412.152C180.64 408.781 173.144 404.484 168.008 398.264C156.043 383.772 149.038 368.972 144.872 350.842C141.074 334.315 139.149 317.735 136.124 301.139C131.8 277.42 123.822 254.418 111.318 233.265C101.12 216.015 85.3782 204.378 71.5251 190.648C65.9482 185.12 60.1289 179.275 55.6795 172.744C52.0215 167.375 47.3042 162.084 44.3786 156.274C42.5283 152.6 39.2089 149.036 38.0364 145.134C37.5278 143.442 36.3645 140.615 35.346 139.138C33.4733 136.423 32.1128 131.335 31.1502 128.132" stroke="#505050" stroke-linecap="round"/>
</svg>
