<svg width="604" height="594" viewBox="0 0 604 594" fill="none" xmlns="http://www.w3.org/2000/svg">
<path d="M98.3564 336.746C-3.32329 267.07 113.263 91.8827 232.796 2.51736C439.185 142.661 507.914 230.768 559.347 332.706C610.779 434.645 325.916 520.589 254.497 524.799C183.077 529.009 200.036 406.421 98.3564 336.746Z" fill="#FFC900"/>
<path d="M251.868 566.565C244.741 568.216 235.788 564.451 229.285 561.668C219.179 557.343 208.296 551.786 200.973 543.561C183.915 524.4 174.187 504.665 168.785 480.352C163.859 458.188 161.699 435.892 157.917 413.611C152.511 381.766 141.684 351.003 124.104 322.878C109.766 299.941 87.017 284.749 67.1415 266.674C59.14 259.397 50.794 251.699 44.4973 243.034C39.3206 235.91 32.5778 228.925 28.4997 221.184C25.9205 216.288 21.1691 211.589 19.5995 206.365C18.9184 204.098 17.3181 200.324 15.876 198.365C13.2245 194.763 11.4258 187.946 10.1371 183.657" stroke="#505050" stroke-linecap="round"/>
<path d="M270.369 554.238C263.977 555.718 255.786 551.807 249.835 548.918C240.588 544.429 230.605 538.707 223.764 530.422C207.83 511.122 198.5 491.41 192.951 467.264C187.893 445.253 185.329 423.17 181.3 401.067C175.541 369.477 164.916 338.842 148.263 310.671C134.681 287.696 113.715 272.198 95.2651 253.912C87.8375 246.55 80.0871 238.764 74.1613 230.066C69.2895 222.915 63.0068 215.868 59.1103 208.131C56.6461 203.237 52.2251 198.491 50.6636 193.295C49.9861 191.04 48.4368 187.275 47.0804 185.309C44.5863 181.693 42.7742 174.917 41.4922 170.65" stroke="#505050" stroke-linecap="round"/>
</svg>
